<svg id="Layer_1" enable-background="new 0 0 511 511" height="512" viewBox="0 0 511 511" width="512" xmlns="http://www.w3.org/2000/svg"><g><path d="m106 1v345h405c0-4.624 0-329.342 0-345zm53.787 60h30v30h-30zm85.607 184.394-21.213 21.213-55.607-55.607 55.607-55.606 21.213 21.213-34.393 34.393zm4.393-154.394h-30v-30h30zm30-30h30v30h-30zm29.709 227.941-29.418-5.883 30-150 29.418 5.884zm85.898-22.335-21.213-21.213 34.393-34.393-34.393-34.394 21.213-21.213 55.606 55.607z"/><path d="m481 376h-405v-225h-45v255h450z"/><path d="m0 435h510v75h-510z"/></g></svg>